<?xml version="1.0" encoding="utf-8"?>

<!-- Uploaded to: SVG Repo, www.svgrepo.com, Generator: SVG Repo Mixer Tools -->
<svg fill="#000000" height="800px" width="800px" version="1.1" id="Icons" xmlns="http://www.w3.org/2000/svg" xmlns:xlink="http://www.w3.org/1999/xlink" 
	 viewBox="0 0 32 32" xml:space="preserve">
<g>
	<path d="M16,16.8l13.8-9.2C29.2,5.5,27.3,4,25,4H7C4.7,4,2.8,5.5,2.2,7.6L16,16.8z"/>
</g>
<path d="M31,23h-1v-1.5c0-2.5-2-4.5-4.5-4.5S21,19,21,21.5V23h-1c-0.6,0-1,0.4-1,1v7c0,0.6,0.4,1,1,1h11c0.6,0,1-0.4,1-1v-7
	C32,23.4,31.6,23,31,23z M23,21.5c0-1.4,1.1-2.5,2.5-2.5s2.5,1.1,2.5,2.5V23h-5V21.5z"/>
<path d="M17,24c0-1.3,0.8-2.4,2-2.8c0.2-3.4,3-6.2,6.5-6.2c1.7,0,3.3,0.7,4.5,1.8V9.9l-13.4,9C16.4,18.9,16.2,19,16,19
	s-0.4-0.1-0.6-0.2L2,9.9V23c0,2.8,2.2,5,5,5h10V24z"/>
</svg>