<?xml version="1.0" encoding="iso-8859-1"?>
<!-- Uploaded to: SVG Repo, www.svgrepo.com, Generator: SVG Repo Mixer Tools -->
<svg version="1.1" id="Layer_1" xmlns="http://www.w3.org/2000/svg" xmlns:xlink="http://www.w3.org/1999/xlink" 
	 viewBox="0 0 512 512" xml:space="preserve">
<path style="fill:#FED9A8;" d="M428.572,54.097H83.427c-2.382,0-4.313,1.931-4.313,4.313v449.277c0,2.382,1.931,4.313,4.313,4.313
	h345.145c2.382,0,4.313-1.931,4.313-4.313V58.41C432.884,56.028,430.953,54.097,428.572,54.097z"/>
<path style="fill:#EFC48F;" d="M428.572,54.097h-20.047V512h20.047c2.382,0,4.313-1.931,4.313-4.313V58.41
	C432.884,56.028,430.953,54.097,428.572,54.097z"/>
<rect x="101.233" y="54.116" style="fill:#F2F2F2;" width="312.758" height="426.887"/>
<rect x="389.947" y="54.116" style="fill:#E6E6E6;" width="24.048" height="426.887"/>
<polygon style="fill:#37CC8F;" points="312.905,159.915 273.827,159.915 273.827,120.838 238.172,120.838 238.172,159.915 
	199.094,159.915 199.094,195.571 238.172,195.571 238.172,234.649 273.827,234.649 273.827,195.571 312.905,195.571 "/>
<path style="fill:#8A6747;" d="M288.653,24.032v-8.359C288.653,7.017,281.636,0,272.979,0h-33.959
	c-8.656,0-15.673,7.017-15.673,15.673v8.359h-60.21c-2.382,0-4.313,1.931-4.313,4.313v51.979c0,2.382,1.931,4.313,4.313,4.313
	h185.726c2.382,0,4.313-1.931,4.313-4.313V28.345c0-2.382-1.931-4.313-4.313-4.313H288.653z"/>
<g>
	<path style="fill:#B3B3B3;" d="M392.07,279.002H119.93c-1.787,0-3.235-1.448-3.235-3.235c0-1.787,1.448-3.235,3.235-3.235H392.07
		c1.787,0,3.235,1.448,3.235,3.235C395.304,277.554,393.856,279.002,392.07,279.002z"/>
	<path style="fill:#B3B3B3;" d="M392.07,337.465H119.93c-1.787,0-3.235-1.448-3.235-3.235c0-1.787,1.448-3.235,3.235-3.235H392.07
		c1.787,0,3.235,1.448,3.235,3.235C395.304,336.017,393.856,337.465,392.07,337.465z"/>
	<path style="fill:#B3B3B3;" d="M392.07,395.928H119.93c-1.787,0-3.235-1.448-3.235-3.235s1.448-3.235,3.235-3.235H392.07
		c1.787,0,3.235,1.448,3.235,3.235S393.856,395.928,392.07,395.928z"/>
	<path style="fill:#B3B3B3;" d="M392.07,454.391h-69.626c-1.787,0-3.235-1.448-3.235-3.235s1.448-3.235,3.235-3.235h69.626
		c1.787,0,3.235,1.448,3.235,3.235S393.856,454.391,392.07,454.391z"/>
</g>
<path style="fill:#7F5C40;" d="M328.73,84.637h20.132c2.382,0,4.313-1.931,4.313-4.313V28.345c0-2.382-1.931-4.313-4.313-4.313
	H328.73V84.637z"/>
</svg>